<?xml version="1.0" encoding="utf-8"?>
<!-- Generator: Adobe Illustrator 24.0.2, SVG Export Plug-In . SVG Version: 6.00 Build 0)  -->
<svg version="1.1" id="Calque_1" xmlns="http://www.w3.org/2000/svg" xmlns:xlink="http://www.w3.org/1999/xlink" x="0px" y="0px"
	 viewBox="0 0 792 612" style="enable-background:new 0 0 792 612;" xml:space="preserve">
<style type="text/css">
	.st0{display:none;fill:#5E5E5E;stroke:#898989;stroke-miterlimit:10;}
	.st1{fill:none;stroke:#FFFFFF;stroke-width:13.3306;stroke-miterlimit:10;}
	.st2{fill:#FFFFFF;}
</style>
<rect x="-1060.05" y="-385.2" class="st0" width="2263.94" height="1239.71"/>
<path class="st1" d="M301.2,139.84l44.65,72.75c0,0,6.84,9.75-3.6,19.84c-10.44,10.09-37.8,32.72-37.8,32.72s-5.04,4.87-1.08,13.23
	c3.96,8.35,45.01,93.63,130.7,125.66c10.8,4.53,15.48-3.83,15.48-3.83l29.88-32.37c0,0,9.36-11.14,20.16-5.57
	c10.8,5.57,73.45,41.42,73.45,41.42s10.08,2.78,7.56,16.71c-2.52,13.92-6.84,44.21-51.13,60.57s-81.86,5.42-81.86,5.42
	S254.59,418.59,209.9,239.63c-8.28-60.22,41.25-92.82,41.25-92.82S283.07,125.27,301.2,139.84z"/>
<path class="st2" d="M435.75,204.26c0,0-10.89-2.95-11.74,5.36s9.64,10.18,9.64,10.18s41.38,11.84,58.42,55.68
	c3.89,10.7,7.84,10.23,12.13,9.04c4.29-1.2,4.89-5.54,3.66-11.26S487.25,217.27,435.75,204.26z"/>
<path class="st2" d="M414.59,146.82c0,0-1.95,7.62,6.76,10.26c8.72,2.65,93.13,20.89,133.43,125.69c3.84,8.9,4.28,11.77,12.49,9.03
	s4.01-11.63,4.01-11.63S536.2,168.74,423.43,140.82C419.81,140.2,415.56,142.84,414.59,146.82z"/>
<path class="st2" d="M1193.43,166.59c0,0,156.95,30.67,219.49,215.11c5.58,13.54,2.79,7.17,2.79,7.17s2.39,8.37,11.15,6.37
	c8.76-1.99,5.58-13.15,5.58-13.15s-42.22-174.48-231.84-231.84c0,0-8.95-1.3-11.15,4.38C1186.66,161.81,1189.84,165,1193.43,166.59z
	"/>
</svg>
