<?xml version="1.0" encoding="utf-8"?>
<!-- Generator: Adobe Illustrator 24.0.2, SVG Export Plug-In . SVG Version: 6.00 Build 0)  -->
<svg version="1.1" id="Calque_1" xmlns="http://www.w3.org/2000/svg" xmlns:xlink="http://www.w3.org/1999/xlink" x="0px" y="0px"
	 viewBox="0 0 50 50" style="enable-background:new 0 0 50 50;" xml:space="preserve">
<style type="text/css">
	.st0{fill-rule:evenodd;clip-rule:evenodd;fill:#25D366;}
</style>
<path class="st0" d="M25.4,2.3c5.7,0,11.1,2.2,15.2,6.2c4.2,4,6.6,9.4,6.8,15.2c0.2,5.7-1.8,11.2-5.5,15.5c-4.1,4.7-9.8,7.3-16,7.5
	c-0.2,0-0.4,0-0.6,0c-3.3,0-6.6-0.7-9.6-2.2L4.1,47.1c0,0,0,0,0,0c-0.1,0-0.2-0.1-0.2-0.2l2-11.7c-1.7-3.1-2.6-6.5-2.7-10
	c-0.2-5.9,2-11.6,6-15.9c4.2-4.5,10-7,16.2-7H25.4z M25.3,6.2c-0.2,0-0.4,0-0.5,0C14.7,6.5,6.7,14.9,7,25c0.1,3.1,1,6.1,2.5,8.8
	l0.3,0.6l-1.5,8l7.9-1.9l0.6,0.3c2.6,1.4,5.5,2.1,8.5,2.1c0.2,0,0.3,0,0.5,0c10.1-0.3,18.1-8.7,17.8-18.9
	C43.3,14.1,35.2,6.2,25.3,6.2L25.3,6.2z M17.6,13.8c0.4,0,0.7,0,1.1,0c0.4,0,0.8,0.1,1.2,1c0.5,1.1,1.5,3.9,1.6,4.2
	c0.1,0.3,0.2,0.6,0,1c-0.2,0.4-0.3,0.6-0.6,0.9c-0.3,0.3-0.6,0.7-0.9,1c-0.3,0.3-0.6,0.6-0.3,1.1c0.3,0.6,1.4,2.4,3,4
	c2.1,2,3.7,2.6,4.4,2.9c0.2,0.1,0.4,0.2,0.6,0.2c0.2,0,0.4-0.1,0.6-0.3c0.3-0.4,1.4-1.6,1.8-2.1c0.2-0.3,0.4-0.4,0.7-0.4
	c0.2,0,0.4,0.1,0.6,0.2c0.5,0.2,3.2,1.6,3.7,1.9c0.5,0.3,0.9,0.4,1,0.7c0.1,0.2,0.1,1.4-0.4,2.6c-0.5,1.3-2.8,2.5-3.8,2.5
	c-0.3,0-0.6,0.1-1,0.1c-0.9,0-2.4-0.2-5.7-1.7c-5.6-2.4-9-8.3-9.3-8.7c-0.3-0.4-2.2-3.1-2.1-5.8c0.1-2.7,1.6-4,2.1-4.6
	C16.6,13.9,17.2,13.8,17.6,13.8L17.6,13.8z M17.6,13.8"/>
</svg>
